<?xml version="1.0" standalone="no"?>
<!DOCTYPE svg PUBLIC "-//W3C//DTD SVG 20010904//EN"
 "http://www.w3.org/TR/2001/REC-SVG-20010904/DTD/svg10.dtd">
<svg version="1.0" xmlns="http://www.w3.org/2000/svg"
 width="265.000000pt" height="265.000000pt" viewBox="0 0 265.000000 265.000000"
 preserveAspectRatio="xMidYMid meet">
<metadata>
Created by potrace 1.11, written by Peter Selinger 2001-2013
</metadata>
<g transform="translate(0.000000,265.000000) scale(0.100000,-0.100000)"
fill="#000000" stroke="none">
<path d="M359 2629 c-1 -8 -1 -17 0 -21 0 -5 -3 -8 -9 -8 -16 0 -12 -33 7 -59
9 -14 12 -21 6 -18 -17 11 -24 -20 -7 -33 8 -7 14 -21 14 -31 0 -20 45 -107
89 -174 14 -22 32 -52 39 -66 8 -14 24 -38 38 -54 13 -15 26 -35 29 -45 3 -10
12 -21 20 -24 8 -3 15 -10 15 -16 0 -5 8 -18 18 -29 9 -10 49 -53 87 -96 39
-42 89 -98 113 -123 43 -46 53 -72 28 -72 -8 0 -16 -7 -20 -15 -3 -8 -9 -14
-13 -13 -4 2 -17 -4 -29 -12 -18 -13 -20 -24 -18 -82 2 -38 6 -74 11 -80 4 -7
8 -24 9 -38 1 -14 2 -25 4 -25 1 0 3 -11 5 -25 2 -14 8 -45 12 -70 8 -43 7
-47 -29 -82 -61 -60 -77 -113 -84 -288 -3 -78 0 -123 13 -175 9 -38 16 -74 14
-80 -6 -20 -4 -81 3 -112 9 -37 43 -69 86 -78 17 -4 30 -12 31 -18 3 -42 13
-74 30 -98 13 -19 18 -37 14 -56 -4 -15 -10 -56 -14 -91 -4 -34 -8 -65 -9 -67
-1 -3 -2 -18 -2 -33 0 -16 -9 -39 -20 -52 -12 -13 -18 -30 -16 -37 3 -8 -2
-13 -15 -13 -11 0 -18 -4 -14 -9 3 -5 1 -12 -5 -16 -5 -3 -10 -15 -10 -26 0
-10 -4 -19 -9 -19 -5 0 -16 -11 -25 -25 l-16 -25 490 0 c529 0 506 -2 480 50
-5 11 -14 29 -20 40 -5 11 -10 26 -10 34 0 8 -6 21 -13 28 -12 12 -29 45 -31
60 -1 4 -21 28 -46 55 -24 26 -45 57 -47 68 -2 11 -5 93 -7 182 -3 143 -2 163
13 168 9 3 25 23 35 45 11 22 23 40 28 40 4 0 8 7 8 15 0 9 7 18 15 21 8 4 15
12 15 19 0 7 9 24 20 38 11 14 19 29 18 34 -1 4 6 23 15 40 15 28 24 106 17
138 -1 6 -3 19 -5 30 -4 42 -18 85 -27 85 -5 0 -7 4 -4 8 6 10 -31 85 -62 130
-12 16 -19 31 -17 34 3 2 -6 15 -20 28 -14 13 -25 27 -25 32 0 5 -11 21 -24
35 -21 22 -36 60 -40 98 -1 6 -6 17 -11 25 -12 19 -16 61 -8 80 3 8 7 25 8 38
1 30 148 196 230 260 15 12 25 22 21 22 -4 0 6 14 21 30 31 33 50 67 78 140 9
25 21 53 26 62 5 9 11 31 14 49 3 18 8 36 11 41 10 16 12 78 3 78 -5 0 -7 10
-5 22 3 25 -36 64 -54 53 -6 -4 -9 -2 -8 3 3 11 -6 12 -34 4 -10 -2 -16 -8
-13 -12 3 -5 -3 -6 -12 -4 -22 6 -79 -41 -192 -158 -47 -49 -88 -88 -93 -88
-11 0 -68 -61 -68 -73 0 -5 -11 -31 -25 -59 -14 -27 -25 -58 -25 -69 0 -10 -5
-19 -11 -19 -5 0 -8 4 -4 9 3 6 -4 9 -15 8 -25 -2 -26 -15 -1 -25 15 -6 13 -9
-15 -23 -19 -9 -34 -13 -34 -8 0 4 9 10 20 14 17 5 18 9 7 26 -10 16 -9 21 3
29 12 7 10 9 -7 8 -13 -1 -19 -7 -16 -15 3 -8 0 -11 -9 -8 -21 8 -17 50 4 49
10 -1 14 4 11 12 -2 7 -12 10 -20 7 -13 -5 -13 -3 -4 15 7 14 8 23 1 27 -7 4
-6 13 1 26 5 11 9 25 7 31 -2 6 -10 -3 -17 -20 -16 -39 -35 -43 -20 -4 7 17 7
23 0 17 -5 -5 -12 -23 -15 -39 -3 -16 -9 -32 -13 -35 -4 -3 -8 -12 -8 -20 0
-8 -5 -16 -11 -18 -7 -2 -11 6 -10 22 0 14 4 25 7 25 3 0 11 11 17 25 8 18 8
25 1 25 -8 0 -7 6 2 16 16 19 21 47 7 38 -5 -3 -7 -8 -4 -11 3 -3 -1 -12 -9
-19 -8 -8 -12 -21 -9 -28 8 -21 -12 -28 -27 -9 -12 14 -12 16 0 8 11 -6 13 -4
8 8 -3 9 -2 19 3 22 10 6 2 35 -10 35 -4 0 -10 -17 -13 -37 -10 -62 -13 -72
-21 -80 -5 -4 -6 6 -3 22 3 17 3 35 -1 40 -11 16 -34 17 -44 3 -7 -10 -9 -10
-5 2 2 8 12 15 21 15 10 0 22 9 28 19 8 14 7 17 -1 12 -7 -4 -11 1 -11 13 0
11 -4 22 -9 26 -10 6 -7 -27 4 -45 3 -6 2 -10 -3 -10 -13 0 -33 25 -26 33 5 5
-68 2 -73 -3 -10 -9 -31 -2 -45 15 -16 20 -16 19 -14 -11 2 -28 -4 -25 -100
70 -194 192 -316 299 -371 327 -52 27 -113 36 -114 18z m690 -437 c0 -10 -3
-12 -5 -5 -3 7 -12 9 -20 6 -7 -3 -11 -10 -7 -16 3 -6 1 -7 -5 -3 -7 4 -12 1
-13 -6 0 -10 -2 -10 -6 -1 -6 16 16 39 39 40 11 1 18 -5 17 -15z m26 -2 c3 -5
1 -10 -4 -10 -6 0 -11 5 -11 10 0 6 2 10 4 10 3 0 8 -4 11 -10z m-45 -40 c0
-5 -2 -10 -4 -10 -3 0 -8 5 -11 10 -3 6 -1 10 4 10 6 0 11 -4 11 -10z m71 -33
c-10 -9 -11 -8 -5 6 3 10 9 15 12 12 3 -3 0 -11 -7 -18z m145 -39 c-9 -13 -21
-33 -26 -45 -13 -31 -20 -29 -14 4 5 27 31 61 48 62 5 1 1 -9 -8 -21z m5 -94
c6 -7 3 -17 -8 -25 -16 -12 -17 -12 -6 2 16 19 5 33 -14 18 -16 -14 -17 -5 -1
21 9 13 14 16 17 8 2 -7 8 -18 12 -24z m70 -52 c-7 -13 -6 -23 2 -31 9 -10 9
-12 -3 -9 -9 2 -14 -3 -12 -13 1 -9 -5 -20 -14 -23 -13 -5 -14 -4 -6 7 7 8 9
16 6 19 -6 6 23 68 32 68 2 0 0 -8 -5 -18z"/>
<path d="M1013 2321 c0 -11 5 -18 9 -15 4 3 5 11 1 19 -7 21 -12 19 -10 -4z"/>
<path d="M874 2298 c-4 -7 -3 -8 4 -4 11 7 17 -6 13 -27 -1 -5 3 -6 8 -3 5 4
12 2 16 -4 3 -5 1 -10 -4 -10 -6 0 -11 -5 -11 -11 0 -5 5 -7 10 -4 6 3 10 1
10 -4 0 -6 4 -11 9 -11 15 0 5 49 -14 70 -21 23 -31 25 -41 8z"/>
<path d="M1025 2269 c-5 -7 -4 -10 2 -6 6 4 14 -3 18 -16 4 -15 8 -18 12 -9 8
20 -22 48 -32 31z"/>
<path d="M976 2237 c3 -10 9 -15 12 -12 3 3 0 11 -7 18 -10 9 -11 8 -5 -6z"/>
<path d="M1153 2225 c0 -8 4 -12 9 -9 4 3 8 9 8 15 0 5 -4 9 -8 9 -5 0 -9 -7
-9 -15z"/>
<path d="M1290 2130 c0 -5 5 -10 11 -10 5 0 7 5 4 10 -3 6 -8 10 -11 10 -2 0
-4 -4 -4 -10z"/>
<path d="M1290 2070 c0 -5 5 -10 10 -10 6 0 10 5 10 10 0 6 -4 10 -10 10 -5 0
-10 -4 -10 -10z"/>
</g>
</svg>
